# xmcd CD database file
#
# Track frame offsets:
#	150
#	20473
#	31655
#	42155
#	50600
#	63435
#	75515
#	87133
#	101458
#	116073
#	129045
#	144725
#	157415
#	170255
#	182758
#	192213
#	202563
#	233033
#	244075
#	264140
#	273215
#
# Disc length: 3852 seconds
#
# Revision: 2
# Processed by: cddbd v1.5.2PL0 Copyright (c) Steve Scherf et al.
# Submitted via: CDex 1.51
#
DISCID=080f0a15
DTITLE=Edvard Grieg - Songs - Lieder Vol.7
DYEAR=1991
DGENRE=Classique
TTITLE0=EG 135 - For L.M Lindeman's Silver Wedding Anniversery
TTITLE1=EG 145 - The Blueberry
TTITLE2=EG 155 - Yuletide Cradle Song
TTITLE3=EG 123 - Devoutest of Maidens
TTITLE4=EG 129 - Little Lad
TTITLE5=EG 142 - The Forgotten Maid
TTITLE6=EG 137 - The White and the Red, Red Roses
TTITLE7=EG 125 - The Soldie
TTITLE8=EG 128 - Tears
TTITLE9=EG 151 - National Song
TTITLE10=EG 131 - The Odalisque
TTITLE11=EG 147 - A Simple Song
TTITLE12=EG 141 - The Lass
TTITLE13=EG 153 - I Loved Him
TTITLE14=EG 144 - Beneath The Christmas Tree
TTITLE15=EG 126 - My LIttle Bird
TTITLE16=EG 149 - Election Song
TTITLE17=EG 140 - On the Ruins of Hamar
TTITLE18=EG 156 - Genleman-Rankers
TTITLE19=EG 154 - To a Devil
TTITLE20=EG 136 - To Chr. Tønsberg
EXTD=YEAR: 1991
EXTT0=
EXTT1=
EXTT2=
EXTT3=
EXTT4=
EXTT5=
EXTT6=
EXTT7=
EXTT8=
EXTT9=
EXTT10=
EXTT11=
EXTT12=
EXTT13=
EXTT14=
EXTT15=
EXTT16=
EXTT17=
EXTT18=
EXTT19=
EXTT20=
PLAYORDER=
